<?xml version="1.0" encoding="UTF-8" standalone="no"?><svg xmlns="http://www.w3.org/2000/svg" xmlns:xlink="http://www.w3.org/1999/xlink" contentScriptType="application/ecmascript" contentStyleType="text/css" height="715px" preserveAspectRatio="none" style="width:394px;height:715px;" version="1.1" viewBox="0 0 394 715" width="394px" zoomAndPan="magnify"><defs><filter height="300%" id="fozawam5hxvy" width="300%" x="-1" y="-1"><feGaussianBlur result="blurOut" stdDeviation="2.0"/><feColorMatrix in="blurOut" result="blurOut2" type="matrix" values="0 0 0 0 0 0 0 0 0 0 0 0 0 0 0 0 0 0 .4 0"/><feOffset dx="4.0" dy="4.0" in="blurOut2" result="blurOut3"/><feBlend in="SourceGraphic" in2="blurOut3" mode="normal"/></filter></defs><g><!--MD5=[cda2b11856ba6980467e145a4f8e0c01]
class AnnotationConfigApplicationContext--><rect fill="#FEFECE" filter="url(#fozawam5hxvy)" height="48" id="AnnotationConfigApplicationContext" style="stroke: #A80036; stroke-width: 1.5;" width="257" x="59.5" y="656"/><ellipse cx="74.5" cy="672" fill="#ADD1B2" rx="11" ry="11" style="stroke: #A80036; stroke-width: 1.0;"/><path d="M77.4688,677.6406 Q76.8906,677.9375 76.25,678.0859 Q75.6094,678.2344 74.9063,678.2344 Q72.4063,678.2344 71.0859,676.5859 Q69.7656,674.9375 69.7656,671.8125 Q69.7656,668.6875 71.0859,667.0313 Q72.4063,665.375 74.9063,665.375 Q75.6094,665.375 76.2578,665.5313 Q76.9063,665.6875 77.4688,665.9844 L77.4688,668.7031 Q76.8438,668.125 76.25,667.8516 Q75.6563,667.5781 75.0313,667.5781 Q73.6875,667.5781 73,668.6484 Q72.3125,669.7188 72.3125,671.8125 Q72.3125,673.9063 73,674.9766 Q73.6875,676.0469 75.0313,676.0469 Q75.6563,676.0469 76.25,675.7734 Q76.8438,675.5 77.4688,674.9219 L77.4688,677.6406 Z "/><text fill="#000000" font-family="sans-serif" font-size="12" lengthAdjust="spacingAndGlyphs" textLength="225" x="88.5" y="676.1543">AnnotationConfigApplicationContext</text><line style="stroke: #A80036; stroke-width: 1.5;" x1="60.5" x2="315.5" y1="688" y2="688"/><line style="stroke: #A80036; stroke-width: 1.5;" x1="60.5" x2="315.5" y1="696" y2="696"/><!--MD5=[957fa70b0cf830f543d45538d1893298]
class GenericApplicationContext--><rect fill="#FEFECE" filter="url(#fozawam5hxvy)" height="48" id="GenericApplicationContext" style="stroke: #A80036; stroke-width: 1.5;" width="197" x="89.5" y="548"/><ellipse cx="104.5" cy="564" fill="#ADD1B2" rx="11" ry="11" style="stroke: #A80036; stroke-width: 1.0;"/><path d="M107.4688,569.6406 Q106.8906,569.9375 106.25,570.0859 Q105.6094,570.2344 104.9063,570.2344 Q102.4063,570.2344 101.0859,568.5859 Q99.7656,566.9375 99.7656,563.8125 Q99.7656,560.6875 101.0859,559.0313 Q102.4063,557.375 104.9063,557.375 Q105.6094,557.375 106.2578,557.5313 Q106.9063,557.6875 107.4688,557.9844 L107.4688,560.7031 Q106.8438,560.125 106.25,559.8516 Q105.6563,559.5781 105.0313,559.5781 Q103.6875,559.5781 103,560.6484 Q102.3125,561.7188 102.3125,563.8125 Q102.3125,565.9063 103,566.9766 Q103.6875,568.0469 105.0313,568.0469 Q105.6563,568.0469 106.25,567.7734 Q106.8438,567.5 107.4688,566.9219 L107.4688,569.6406 Z "/><text fill="#000000" font-family="sans-serif" font-size="12" lengthAdjust="spacingAndGlyphs" textLength="165" x="118.5" y="568.1543">GenericApplicationContext</text><line style="stroke: #A80036; stroke-width: 1.5;" x1="90.5" x2="285.5" y1="580" y2="580"/><line style="stroke: #A80036; stroke-width: 1.5;" x1="90.5" x2="285.5" y1="588" y2="588"/><!--MD5=[a65f6e9aeee0d27719d64de862c98991]
class AbstractApplicationContext--><rect fill="#FEFECE" filter="url(#fozawam5hxvy)" height="48" id="AbstractApplicationContext" style="stroke: #A80036; stroke-width: 1.5;" width="202" x="87" y="440"/><ellipse cx="102" cy="456" fill="#A9DCDF" rx="11" ry="11" style="stroke: #A80036; stroke-width: 1.0;"/><path d="M102.1094,451.3438 L100.9531,456.4219 L103.2813,456.4219 L102.1094,451.3438 Z M100.625,449.1094 L103.6094,449.1094 L106.9688,461.5 L104.5156,461.5 L103.75,458.4375 L100.4688,458.4375 L99.7188,461.5 L97.2813,461.5 L100.625,449.1094 Z "/><text fill="#000000" font-family="sans-serif" font-size="12" font-style="italic" lengthAdjust="spacingAndGlyphs" textLength="170" x="116" y="460.1543">AbstractApplicationContext</text><line style="stroke: #A80036; stroke-width: 1.5;" x1="88" x2="288" y1="472" y2="472"/><line style="stroke: #A80036; stroke-width: 1.5;" x1="88" x2="288" y1="480" y2="480"/><!--MD5=[0d935ab01ab745f54ea50b53c0359c1d]
class ConfigurableApplicationContext--><rect fill="#FEFECE" filter="url(#fozawam5hxvy)" height="48" id="ConfigurableApplicationContext" style="stroke: #A80036; stroke-width: 1.5;" width="228" x="74" y="332"/><ellipse cx="89" cy="348" fill="#B4A7E5" rx="11" ry="11" style="stroke: #A80036; stroke-width: 1.0;"/><path d="M84.9219,343.7656 L84.9219,341.6094 L92.3125,341.6094 L92.3125,343.7656 L89.8438,343.7656 L89.8438,351.8438 L92.3125,351.8438 L92.3125,354 L84.9219,354 L84.9219,351.8438 L87.3906,351.8438 L87.3906,343.7656 L84.9219,343.7656 Z "/><text fill="#000000" font-family="sans-serif" font-size="12" font-style="italic" lengthAdjust="spacingAndGlyphs" textLength="196" x="103" y="352.1543">ConfigurableApplicationContext</text><line style="stroke: #A80036; stroke-width: 1.5;" x1="75" x2="301" y1="364" y2="364"/><line style="stroke: #A80036; stroke-width: 1.5;" x1="75" x2="301" y1="372" y2="372"/><!--MD5=[bd5220611d0c28d928ccc89c278a01cf]
class ApplicationContext--><rect fill="#FEFECE" filter="url(#fozawam5hxvy)" height="48" id="ApplicationContext" style="stroke: #A80036; stroke-width: 1.5;" width="149" x="113.5" y="224"/><ellipse cx="128.5" cy="240" fill="#B4A7E5" rx="11" ry="11" style="stroke: #A80036; stroke-width: 1.0;"/><path d="M124.4219,235.7656 L124.4219,233.6094 L131.8125,233.6094 L131.8125,235.7656 L129.3438,235.7656 L129.3438,243.8438 L131.8125,243.8438 L131.8125,246 L124.4219,246 L124.4219,243.8438 L126.8906,243.8438 L126.8906,235.7656 L124.4219,235.7656 Z "/><text fill="#000000" font-family="sans-serif" font-size="12" font-style="italic" lengthAdjust="spacingAndGlyphs" textLength="117" x="142.5" y="244.1543">ApplicationContext</text><line style="stroke: #A80036; stroke-width: 1.5;" x1="114.5" x2="261.5" y1="256" y2="256"/><line style="stroke: #A80036; stroke-width: 1.5;" x1="114.5" x2="261.5" y1="264" y2="264"/><!--MD5=[c7d0440a47874ff7b72a6fe2c1166267]
class ListableBeanFactory--><rect fill="#FEFECE" filter="url(#fozawam5hxvy)" height="48" id="ListableBeanFactory" style="stroke: #A80036; stroke-width: 1.5;" width="158" x="6" y="116"/><ellipse cx="21" cy="132" fill="#B4A7E5" rx="11" ry="11" style="stroke: #A80036; stroke-width: 1.0;"/><path d="M16.9219,127.7656 L16.9219,125.6094 L24.3125,125.6094 L24.3125,127.7656 L21.8438,127.7656 L21.8438,135.8438 L24.3125,135.8438 L24.3125,138 L16.9219,138 L16.9219,135.8438 L19.3906,135.8438 L19.3906,127.7656 L16.9219,127.7656 Z "/><text fill="#000000" font-family="sans-serif" font-size="12" font-style="italic" lengthAdjust="spacingAndGlyphs" textLength="126" x="35" y="136.1543">ListableBeanFactory</text><line style="stroke: #A80036; stroke-width: 1.5;" x1="7" x2="163" y1="148" y2="148"/><line style="stroke: #A80036; stroke-width: 1.5;" x1="7" x2="163" y1="156" y2="156"/><!--MD5=[20fde5e98fa81813cd90e0353c4013bb]
class HierarchicalBeanFactory--><rect fill="#FEFECE" filter="url(#fozawam5hxvy)" height="48" id="HierarchicalBeanFactory" style="stroke: #A80036; stroke-width: 1.5;" width="184" x="199" y="116"/><ellipse cx="214" cy="132" fill="#B4A7E5" rx="11" ry="11" style="stroke: #A80036; stroke-width: 1.0;"/><path d="M209.9219,127.7656 L209.9219,125.6094 L217.3125,125.6094 L217.3125,127.7656 L214.8438,127.7656 L214.8438,135.8438 L217.3125,135.8438 L217.3125,138 L209.9219,138 L209.9219,135.8438 L212.3906,135.8438 L212.3906,127.7656 L209.9219,127.7656 Z "/><text fill="#000000" font-family="sans-serif" font-size="12" font-style="italic" lengthAdjust="spacingAndGlyphs" textLength="152" x="228" y="136.1543">HierarchicalBeanFactory</text><line style="stroke: #A80036; stroke-width: 1.5;" x1="200" x2="382" y1="148" y2="148"/><line style="stroke: #A80036; stroke-width: 1.5;" x1="200" x2="382" y1="156" y2="156"/><!--MD5=[d8991812a86ee9dc2b8e022f468b844f]
class BeanFactory--><rect fill="#FEFECE" filter="url(#fozawam5hxvy)" height="48" id="BeanFactory" style="stroke: #A80036; stroke-width: 1.5;" width="110" x="133" y="8"/><ellipse cx="148" cy="24" fill="#B4A7E5" rx="11" ry="11" style="stroke: #A80036; stroke-width: 1.0;"/><path d="M143.9219,19.7656 L143.9219,17.6094 L151.3125,17.6094 L151.3125,19.7656 L148.8438,19.7656 L148.8438,27.8438 L151.3125,27.8438 L151.3125,30 L143.9219,30 L143.9219,27.8438 L146.3906,27.8438 L146.3906,19.7656 L143.9219,19.7656 Z "/><text fill="#000000" font-family="sans-serif" font-size="12" font-style="italic" lengthAdjust="spacingAndGlyphs" textLength="78" x="162" y="28.1543">BeanFactory</text><line style="stroke: #A80036; stroke-width: 1.5;" x1="134" x2="242" y1="40" y2="40"/><line style="stroke: #A80036; stroke-width: 1.5;" x1="134" x2="242" y1="48" y2="48"/><!--MD5=[c25b2dc65fb10b6786164d1d76c3dbdc]
reverse link GenericApplicationContext to AnnotationConfigApplicationContext--><path d="M188,616.0236 C188,629.5792 188,644.0381 188,655.6784 " fill="none" id="GenericApplicationContext&lt;-AnnotationConfigApplicationContext" style="stroke: #A80036; stroke-width: 1.0;"/><polygon fill="none" points="181,616.0005,188,596,195,616.0004,181,616.0005" style="stroke: #A80036; stroke-width: 1.0;"/><!--MD5=[7a6b178763b16385f64c24cc03026bc3]
reverse link AbstractApplicationContext to GenericApplicationContext--><path d="M188,508.024 C188,521.579 188,536.038 188,547.678 " fill="none" id="AbstractApplicationContext&lt;-GenericApplicationContext" style="stroke: #A80036; stroke-width: 1.0;"/><polygon fill="none" points="181,508,188,488,195,508,181,508" style="stroke: #A80036; stroke-width: 1.0;"/><!--MD5=[7c8c9ea097a84aee196d5fee1889692c]
reverse link ConfigurableApplicationContext to AbstractApplicationContext--><path d="M188,400.024 C188,413.579 188,428.038 188,439.678 " fill="none" id="ConfigurableApplicationContext&lt;-AbstractApplicationContext" style="stroke: #A80036; stroke-width: 1.0; stroke-dasharray: 7.0,7.0;"/><polygon fill="none" points="181,400,188,380,195,400,181,400" style="stroke: #A80036; stroke-width: 1.0;"/><!--MD5=[470ca5d9f35e2b5ed94a2a37f770afca]
reverse link ApplicationContext to ConfigurableApplicationContext--><path d="M188,292.024 C188,305.579 188,320.038 188,331.678 " fill="none" id="ApplicationContext&lt;-ConfigurableApplicationContext" style="stroke: #A80036; stroke-width: 1.0;"/><polygon fill="none" points="181,292,188,272,195,292,181,292" style="stroke: #A80036; stroke-width: 1.0;"/><!--MD5=[b07d32c4ff3ecdea5053f3a2ce888384]
reverse link ListableBeanFactory to ApplicationContext--><path d="M121.685,178.753 C136.251,193.744 152.546,210.514 165.338,223.678 " fill="none" id="ListableBeanFactory&lt;-ApplicationContext" style="stroke: #A80036; stroke-width: 1.0;"/><polygon fill="none" points="116.267,183.222,107.349,164,126.307,173.466,116.267,183.222" style="stroke: #A80036; stroke-width: 1.0;"/><!--MD5=[a49fe04aaa3a4d596a64ab368bf23e40]
reverse link HierarchicalBeanFactory to ApplicationContext--><path d="M254.315,178.753 C239.749,193.744 223.454,210.514 210.662,223.678 " fill="none" id="HierarchicalBeanFactory&lt;-ApplicationContext" style="stroke: #A80036; stroke-width: 1.0;"/><polygon fill="none" points="249.693,173.466,268.651,164,259.733,183.222,249.693,173.466" style="stroke: #A80036; stroke-width: 1.0;"/><!--MD5=[77ad0c969780972dffd0d149795cd602]
reverse link BeanFactory to ListableBeanFactory--><path d="M151.315,70.753 C136.749,85.744 120.454,102.514 107.662,115.678 " fill="none" id="BeanFactory&lt;-ListableBeanFactory" style="stroke: #A80036; stroke-width: 1.0;"/><polygon fill="none" points="146.693,65.466,165.651,56,156.733,75.222,146.693,65.466" style="stroke: #A80036; stroke-width: 1.0;"/><!--MD5=[2335f079ddcd55c062f016cd8ad48f58]
reverse link BeanFactory to HierarchicalBeanFactory--><path d="M224.685,70.753 C239.251,85.744 255.546,102.514 268.338,115.678 " fill="none" id="BeanFactory&lt;-HierarchicalBeanFactory" style="stroke: #A80036; stroke-width: 1.0;"/><polygon fill="none" points="219.267,75.222,210.349,56,229.307,65.466,219.267,75.222" style="stroke: #A80036; stroke-width: 1.0;"/><!--MD5=[f159133a232696d17ace66920a853bed]
@startuml
class AnnotationConfigApplicationContext
class GenericApplicationContext
abstract class AbstractApplicationContext
interface ConfigurableApplicationContext
interface ApplicationContext
interface ListableBeanFactory
interface HierarchicalBeanFactory
interface BeanFactory

GenericApplicationContext <|- - AnnotationConfigApplicationContext
AbstractApplicationContext <|- - GenericApplicationContext
ConfigurableApplicationContext <|.. AbstractApplicationContext
ApplicationContext <|- - ConfigurableApplicationContext
ListableBeanFactory <|- - ApplicationContext
HierarchicalBeanFactory <|- - ApplicationContext
BeanFactory <|- - ListableBeanFactory
BeanFactory <|- - HierarchicalBeanFactory
@enduml

PlantUML version 1.2019.13(Tue Dec 10 17:18:29 UTC 2019)
(GPL source distribution)
Java Runtime: OpenJDK Runtime Environment
JVM: OpenJDK 64-Bit Server VM
Java Version: 1.8.0_212-8u212-b01-1~deb9u1-b01
Operating System: Linux
Default Encoding: UTF-8
Language: en
Country: null
--></g></svg>