<?xml version="1.0" encoding="UTF-8" standalone="no"?><svg xmlns="http://www.w3.org/2000/svg" xmlns:xlink="http://www.w3.org/1999/xlink" contentScriptType="application/ecmascript" contentStyleType="text/css" height="698px" preserveAspectRatio="none" style="width:924px;height:698px;" version="1.1" viewBox="0 0 924 698" width="924px" zoomAndPan="magnify"><defs><filter height="300%" id="f18urt3cd54x5v" width="300%" x="-1" y="-1"><feGaussianBlur result="blurOut" stdDeviation="2.0"/><feColorMatrix in="blurOut" result="blurOut2" type="matrix" values="0 0 0 0 0 0 0 0 0 0 0 0 0 0 0 0 0 0 .4 0"/><feOffset dx="4.0" dy="4.0" in="blurOut2" result="blurOut3"/><feBlend in="SourceGraphic" in2="blurOut3" mode="normal"/></filter></defs><g><!--MD5=[a65f6e9aeee0d27719d64de862c98991]
class AbstractApplicationContext--><rect fill="#FEFECE" filter="url(#f18urt3cd54x5v)" height="48" id="AbstractApplicationContext" style="stroke: #A80036; stroke-width: 1.5;" width="202" x="343" y="21"/><ellipse cx="358" cy="37" fill="#A9DCDF" rx="11" ry="11" style="stroke: #A80036; stroke-width: 1.0;"/><path d="M358.1094,32.3438 L356.9531,37.4219 L359.2813,37.4219 L358.1094,32.3438 Z M356.625,30.1094 L359.6094,30.1094 L362.9688,42.5 L360.5156,42.5 L359.75,39.4375 L356.4688,39.4375 L355.7188,42.5 L353.2813,42.5 L356.625,30.1094 Z "/><text fill="#000000" font-family="sans-serif" font-size="12" font-style="italic" lengthAdjust="spacingAndGlyphs" textLength="170" x="372" y="41.1543">AbstractApplicationContext</text><line style="stroke: #A80036; stroke-width: 1.5;" x1="344" x2="544" y1="53" y2="53"/><line style="stroke: #A80036; stroke-width: 1.5;" x1="344" x2="544" y1="61" y2="61"/><!--MD5=[957fa70b0cf830f543d45538d1893298]
class GenericApplicationContext--><rect fill="#FEFECE" filter="url(#f18urt3cd54x5v)" height="48" id="GenericApplicationContext" style="stroke: #A80036; stroke-width: 1.5;" width="197" x="425.5" y="165.5"/><ellipse cx="440.5" cy="181.5" fill="#ADD1B2" rx="11" ry="11" style="stroke: #A80036; stroke-width: 1.0;"/><path d="M443.4688,187.1406 Q442.8906,187.4375 442.25,187.5859 Q441.6094,187.7344 440.9063,187.7344 Q438.4063,187.7344 437.0859,186.0859 Q435.7656,184.4375 435.7656,181.3125 Q435.7656,178.1875 437.0859,176.5313 Q438.4063,174.875 440.9063,174.875 Q441.6094,174.875 442.2578,175.0313 Q442.9063,175.1875 443.4688,175.4844 L443.4688,178.2031 Q442.8438,177.625 442.25,177.3516 Q441.6563,177.0781 441.0313,177.0781 Q439.6875,177.0781 439,178.1484 Q438.3125,179.2188 438.3125,181.3125 Q438.3125,183.4063 439,184.4766 Q439.6875,185.5469 441.0313,185.5469 Q441.6563,185.5469 442.25,185.2734 Q442.8438,185 443.4688,184.4219 L443.4688,187.1406 Z "/><text fill="#000000" font-family="sans-serif" font-size="12" lengthAdjust="spacingAndGlyphs" textLength="165" x="454.5" y="185.6543">GenericApplicationContext</text><line style="stroke: #A80036; stroke-width: 1.5;" x1="426.5" x2="621.5" y1="197.5" y2="197.5"/><line style="stroke: #A80036; stroke-width: 1.5;" x1="426.5" x2="621.5" y1="205.5" y2="205.5"/><!--MD5=[9fbe117df7beb94d4c9dff387ddbaa6a]
class DefaultListableBeanFactory--><rect fill="#FEFECE" filter="url(#f18urt3cd54x5v)" height="60.8047" id="DefaultListableBeanFactory" style="stroke: #A80036; stroke-width: 1.5;" width="203" x="232.5" y="397"/><ellipse cx="247.5" cy="413" fill="#ADD1B2" rx="11" ry="11" style="stroke: #A80036; stroke-width: 1.0;"/><path d="M250.4688,418.6406 Q249.8906,418.9375 249.25,419.0859 Q248.6094,419.2344 247.9063,419.2344 Q245.4063,419.2344 244.0859,417.5859 Q242.7656,415.9375 242.7656,412.8125 Q242.7656,409.6875 244.0859,408.0313 Q245.4063,406.375 247.9063,406.375 Q248.6094,406.375 249.2578,406.5313 Q249.9063,406.6875 250.4688,406.9844 L250.4688,409.7031 Q249.8438,409.125 249.25,408.8516 Q248.6563,408.5781 248.0313,408.5781 Q246.6875,408.5781 246,409.6484 Q245.3125,410.7188 245.3125,412.8125 Q245.3125,414.9063 246,415.9766 Q246.6875,417.0469 248.0313,417.0469 Q248.6563,417.0469 249.25,416.7734 Q249.8438,416.5 250.4688,415.9219 L250.4688,418.6406 Z "/><text fill="#000000" font-family="sans-serif" font-size="12" lengthAdjust="spacingAndGlyphs" textLength="171" x="261.5" y="417.1543">DefaultListableBeanFactory</text><line style="stroke: #A80036; stroke-width: 1.5;" x1="233.5" x2="434.5" y1="429" y2="429"/><line style="stroke: #A80036; stroke-width: 1.5;" x1="233.5" x2="434.5" y1="437" y2="437"/><text fill="#000000" font-family="sans-serif" font-size="11" lengthAdjust="spacingAndGlyphs" textLength="162" x="238.5" y="451.2104">void registerBeanDefinition()</text><!--MD5=[cda2b11856ba6980467e145a4f8e0c01]
class AnnotationConfigApplicationContext--><rect fill="#FEFECE" filter="url(#f18urt3cd54x5v)" height="48" id="AnnotationConfigApplicationContext" style="stroke: #A80036; stroke-width: 1.5;" width="257" x="395.5" y="300"/><ellipse cx="410.5" cy="316" fill="#ADD1B2" rx="11" ry="11" style="stroke: #A80036; stroke-width: 1.0;"/><path d="M413.4688,321.6406 Q412.8906,321.9375 412.25,322.0859 Q411.6094,322.2344 410.9063,322.2344 Q408.4063,322.2344 407.0859,320.5859 Q405.7656,318.9375 405.7656,315.8125 Q405.7656,312.6875 407.0859,311.0313 Q408.4063,309.375 410.9063,309.375 Q411.6094,309.375 412.2578,309.5313 Q412.9063,309.6875 413.4688,309.9844 L413.4688,312.7031 Q412.8438,312.125 412.25,311.8516 Q411.6563,311.5781 411.0313,311.5781 Q409.6875,311.5781 409,312.6484 Q408.3125,313.7188 408.3125,315.8125 Q408.3125,317.9063 409,318.9766 Q409.6875,320.0469 411.0313,320.0469 Q411.6563,320.0469 412.25,319.7734 Q412.8438,319.5 413.4688,318.9219 L413.4688,321.6406 Z "/><text fill="#000000" font-family="sans-serif" font-size="12" lengthAdjust="spacingAndGlyphs" textLength="225" x="424.5" y="320.1543">AnnotationConfigApplicationContext</text><line style="stroke: #A80036; stroke-width: 1.5;" x1="396.5" x2="651.5" y1="332" y2="332"/><line style="stroke: #A80036; stroke-width: 1.5;" x1="396.5" x2="651.5" y1="340" y2="340"/><!--MD5=[bd256dca4c02d50f4175cd869036baf8]
class AnnotatedBeanDefinitionReader--><rect fill="#FEFECE" filter="url(#f18urt3cd54x5v)" height="73.6094" id="AnnotatedBeanDefinitionReader" style="stroke: #A80036; stroke-width: 1.5;" width="234" x="407" y="488"/><ellipse cx="422" cy="504" fill="#ADD1B2" rx="11" ry="11" style="stroke: #A80036; stroke-width: 1.0;"/><path d="M424.9688,509.6406 Q424.3906,509.9375 423.75,510.0859 Q423.1094,510.2344 422.4063,510.2344 Q419.9063,510.2344 418.5859,508.5859 Q417.2656,506.9375 417.2656,503.8125 Q417.2656,500.6875 418.5859,499.0313 Q419.9063,497.375 422.4063,497.375 Q423.1094,497.375 423.7578,497.5313 Q424.4063,497.6875 424.9688,497.9844 L424.9688,500.7031 Q424.3438,500.125 423.75,499.8516 Q423.1563,499.5781 422.5313,499.5781 Q421.1875,499.5781 420.5,500.6484 Q419.8125,501.7188 419.8125,503.8125 Q419.8125,505.9063 420.5,506.9766 Q421.1875,508.0469 422.5313,508.0469 Q423.1563,508.0469 423.75,507.7734 Q424.3438,507.5 424.9688,506.9219 L424.9688,509.6406 Z "/><text fill="#000000" font-family="sans-serif" font-size="12" lengthAdjust="spacingAndGlyphs" textLength="202" x="436" y="508.1543">AnnotatedBeanDefinitionReader</text><line style="stroke: #A80036; stroke-width: 1.5;" x1="408" x2="640" y1="520" y2="520"/><line style="stroke: #A80036; stroke-width: 1.5;" x1="408" x2="640" y1="528" y2="528"/><text fill="#000000" font-family="sans-serif" font-size="11" lengthAdjust="spacingAndGlyphs" textLength="80" x="413" y="542.2104">void register()</text><text fill="#000000" font-family="sans-serif" font-size="11" lengthAdjust="spacingAndGlyphs" textLength="109" x="413" y="555.0151">void registerBean()</text><!--MD5=[c0d5d831fa854124d1db43ebaca0f187]
class ClassPathBeanDefinitionScanner--><rect fill="#FEFECE" filter="url(#f18urt3cd54x5v)" height="48" id="ClassPathBeanDefinitionScanner" style="stroke: #A80036; stroke-width: 1.5;" width="237" x="676.5" y="501"/><ellipse cx="691.5" cy="517" fill="#ADD1B2" rx="11" ry="11" style="stroke: #A80036; stroke-width: 1.0;"/><path d="M694.4688,522.6406 Q693.8906,522.9375 693.25,523.0859 Q692.6094,523.2344 691.9063,523.2344 Q689.4063,523.2344 688.0859,521.5859 Q686.7656,519.9375 686.7656,516.8125 Q686.7656,513.6875 688.0859,512.0313 Q689.4063,510.375 691.9063,510.375 Q692.6094,510.375 693.2578,510.5313 Q693.9063,510.6875 694.4688,510.9844 L694.4688,513.7031 Q693.8438,513.125 693.25,512.8516 Q692.6563,512.5781 692.0313,512.5781 Q690.6875,512.5781 690,513.6484 Q689.3125,514.7188 689.3125,516.8125 Q689.3125,518.9063 690,519.9766 Q690.6875,521.0469 692.0313,521.0469 Q692.6563,521.0469 693.25,520.7734 Q693.8438,520.5 694.4688,519.9219 L694.4688,522.6406 Z "/><text fill="#000000" font-family="sans-serif" font-size="12" lengthAdjust="spacingAndGlyphs" textLength="205" x="705.5" y="521.1543">ClassPathBeanDefinitionScanner</text><line style="stroke: #A80036; stroke-width: 1.5;" x1="677.5" x2="912.5" y1="533" y2="533"/><line style="stroke: #A80036; stroke-width: 1.5;" x1="677.5" x2="912.5" y1="541" y2="541"/><!--MD5=[0734bc3c8c780ad01a5bb8b545fce967]
class BeanDefinitionRegistry--><rect fill="#FEFECE" filter="url(#f18urt3cd54x5v)" height="86.4141" id="BeanDefinitionRegistry" style="stroke: #A80036; stroke-width: 1.5;" width="206" x="688" y="281"/><ellipse cx="717.85" cy="297" fill="#B4A7E5" rx="11" ry="11" style="stroke: #A80036; stroke-width: 1.0;"/><path d="M713.7719,292.7656 L713.7719,290.6094 L721.1625,290.6094 L721.1625,292.7656 L718.6938,292.7656 L718.6938,300.8438 L721.1625,300.8438 L721.1625,303 L713.7719,303 L713.7719,300.8438 L716.2406,300.8438 L716.2406,292.7656 L713.7719,292.7656 Z "/><text fill="#000000" font-family="sans-serif" font-size="12" font-style="italic" lengthAdjust="spacingAndGlyphs" textLength="141" x="735.15" y="301.1543">BeanDefinitionRegistry</text><line style="stroke: #A80036; stroke-width: 1.5;" x1="689" x2="893" y1="313" y2="313"/><line style="stroke: #A80036; stroke-width: 1.5;" x1="689" x2="893" y1="321" y2="321"/><text fill="#000000" font-family="sans-serif" font-size="11" lengthAdjust="spacingAndGlyphs" textLength="194" x="694" y="335.2104">BeanDefinition getBeanDefinition()</text><text fill="#000000" font-family="sans-serif" font-size="11" lengthAdjust="spacingAndGlyphs" textLength="162" x="694" y="348.0151">void registerBeanDefinition()</text><text fill="#000000" font-family="sans-serif" font-size="11" lengthAdjust="spacingAndGlyphs" textLength="160" x="694" y="360.8198">void removeBeanDefinition()</text><!--MD5=[2804aa30e0ec44b1d29372bbe88aa636]
class BeanDefinition--><rect fill="#FEFECE" filter="url(#f18urt3cd54x5v)" height="48" id="BeanDefinition" style="stroke: #A80036; stroke-width: 1.5;" width="123" x="462.5" y="639"/><ellipse cx="477.5" cy="655" fill="#B4A7E5" rx="11" ry="11" style="stroke: #A80036; stroke-width: 1.0;"/><path d="M473.4219,650.7656 L473.4219,648.6094 L480.8125,648.6094 L480.8125,650.7656 L478.3438,650.7656 L478.3438,658.8438 L480.8125,658.8438 L480.8125,661 L473.4219,661 L473.4219,658.8438 L475.8906,658.8438 L475.8906,650.7656 L473.4219,650.7656 Z "/><text fill="#000000" font-family="sans-serif" font-size="12" font-style="italic" lengthAdjust="spacingAndGlyphs" textLength="91" x="491.5" y="659.1543">BeanDefinition</text><line style="stroke: #A80036; stroke-width: 1.5;" x1="463.5" x2="584.5" y1="671" y2="671"/><line style="stroke: #A80036; stroke-width: 1.5;" x1="463.5" x2="584.5" y1="679" y2="679"/><!--MD5=[f3fc0640411fa3c2d42d2845b1550ea1]
class BeanFactoryPostProcessor--><rect fill="#FEFECE" filter="url(#f18urt3cd54x5v)" height="60.8047" id="BeanFactoryPostProcessor" style="stroke: #A80036; stroke-width: 1.5;" width="201" x="189.5" y="159"/><ellipse cx="204.5" cy="175" fill="#B4A7E5" rx="11" ry="11" style="stroke: #A80036; stroke-width: 1.0;"/><path d="M200.4219,170.7656 L200.4219,168.6094 L207.8125,168.6094 L207.8125,170.7656 L205.3438,170.7656 L205.3438,178.8438 L207.8125,178.8438 L207.8125,181 L200.4219,181 L200.4219,178.8438 L202.8906,178.8438 L202.8906,170.7656 L200.4219,170.7656 Z "/><text fill="#000000" font-family="sans-serif" font-size="12" font-style="italic" lengthAdjust="spacingAndGlyphs" textLength="169" x="218.5" y="179.1543">BeanFactoryPostProcessor</text><line style="stroke: #A80036; stroke-width: 1.5;" x1="190.5" x2="389.5" y1="191" y2="191"/><line style="stroke: #A80036; stroke-width: 1.5;" x1="190.5" x2="389.5" y1="199" y2="199"/><text fill="#000000" font-family="sans-serif" font-size="11" lengthAdjust="spacingAndGlyphs" textLength="176" x="195.5" y="213.2104">void postProcessBeanFactory()</text><!--MD5=[9a7e8fd0f4f8832642087c2a365a3568]
class BeanDefinitionRegistryPostProcessor--><rect fill="#FEFECE" filter="url(#f18urt3cd54x5v)" height="60.8047" id="BeanDefinitionRegistryPostProcessor" style="stroke: #A80036; stroke-width: 1.5;" width="264" x="6" y="293.5"/><ellipse cx="21" cy="309.5" fill="#B4A7E5" rx="11" ry="11" style="stroke: #A80036; stroke-width: 1.0;"/><path d="M16.9219,305.2656 L16.9219,303.1094 L24.3125,303.1094 L24.3125,305.2656 L21.8438,305.2656 L21.8438,313.3438 L24.3125,313.3438 L24.3125,315.5 L16.9219,315.5 L16.9219,313.3438 L19.3906,313.3438 L19.3906,305.2656 L16.9219,305.2656 Z "/><text fill="#000000" font-family="sans-serif" font-size="12" font-style="italic" lengthAdjust="spacingAndGlyphs" textLength="232" x="35" y="313.6543">BeanDefinitionRegistryPostProcessor</text><line style="stroke: #A80036; stroke-width: 1.5;" x1="7" x2="269" y1="325.5" y2="325.5"/><line style="stroke: #A80036; stroke-width: 1.5;" x1="7" x2="269" y1="333.5" y2="333.5"/><text fill="#000000" font-family="sans-serif" font-size="11" lengthAdjust="spacingAndGlyphs" textLength="234" x="12" y="347.7104">void postProcessBeanDefinitionRegistry()</text><!--MD5=[c5e4332182d9d19d18f51703da4273a4]
class PostProcessorRegistrationDelegate--><rect fill="#FEFECE" filter="url(#f18urt3cd54x5v)" height="73.6094" id="PostProcessorRegistrationDelegate" style="stroke: #A80036; stroke-width: 1.5;" width="256" x="11" y="8"/><ellipse cx="26" cy="24" fill="#ADD1B2" rx="11" ry="11" style="stroke: #A80036; stroke-width: 1.0;"/><path d="M28.9688,29.6406 Q28.3906,29.9375 27.75,30.0859 Q27.1094,30.2344 26.4063,30.2344 Q23.9063,30.2344 22.5859,28.5859 Q21.2656,26.9375 21.2656,23.8125 Q21.2656,20.6875 22.5859,19.0313 Q23.9063,17.375 26.4063,17.375 Q27.1094,17.375 27.7578,17.5313 Q28.4063,17.6875 28.9688,17.9844 L28.9688,20.7031 Q28.3438,20.125 27.75,19.8516 Q27.1563,19.5781 26.5313,19.5781 Q25.1875,19.5781 24.5,20.6484 Q23.8125,21.7188 23.8125,23.8125 Q23.8125,25.9063 24.5,26.9766 Q25.1875,28.0469 26.5313,28.0469 Q27.1563,28.0469 27.75,27.7734 Q28.3438,27.5 28.9688,26.9219 L28.9688,29.6406 Z "/><text fill="#000000" font-family="sans-serif" font-size="12" lengthAdjust="spacingAndGlyphs" textLength="224" x="40" y="28.1543">PostProcessorRegistrationDelegate</text><line style="stroke: #A80036; stroke-width: 1.5;" x1="12" x2="266" y1="40" y2="40"/><line style="stroke: #A80036; stroke-width: 1.5;" x1="12" x2="266" y1="48" y2="48"/><text fill="#000000" font-family="sans-serif" font-size="11" lengthAdjust="spacingAndGlyphs" text-decoration="underline" textLength="231" x="17" y="62.2104">void invokeBeanFactoryPostProcessors()</text><text fill="#000000" font-family="sans-serif" font-size="11" lengthAdjust="spacingAndGlyphs" text-decoration="underline" textLength="199" x="17" y="75.0151">void registerBeanPostProcessors()</text><!--MD5=[0b4ed3eb3987e5854bdfd7cbc3ed809c]
link GenericApplicationContext to BeanDefinitionRegistry--><path d="M570.508,213.58 C602.972,229.69 647.593,251.834 688.205,271.988 " fill="none" id="GenericApplicationContext-&gt;BeanDefinitionRegistry" style="stroke: #A80036; stroke-width: 1.0; stroke-dasharray: 7.0,7.0;"/><polygon fill="none" points="691.418,265.767,706.221,280.928,685.194,278.308,691.418,265.767" style="stroke: #A80036; stroke-width: 1.0;"/><!--MD5=[786011b68c40f17d41b11ba0c5d315a7]
reverse link GenericApplicationContext to DefaultListableBeanFactory--><path d="M455.711,219.567 C428.115,234.358 398.102,254.818 378,281 C351.643,315.329 340.998,365.387 336.751,396.933 " fill="none" id="GenericApplicationContext&lt;-DefaultListableBeanFactory" style="stroke: #A80036; stroke-width: 1.0;"/><polygon fill="#FFFFFF" points="467.353,213.574,460.1876,212.7637,456.6836,219.0663,463.8491,219.8766,467.353,213.574" style="stroke: #A80036; stroke-width: 1.0;"/><!--MD5=[6fcb35102088e6b4a642ad0bfb1697a9]
link DefaultListableBeanFactory to BeanDefinition--><path d="M329.77,458.119 C327.228,487.003 327.716,530.992 348,562 C374.357,602.2912 422.909,628.0974 462.352,643.3831 " fill="none" id="DefaultListableBeanFactory-BeanDefinition" style="stroke: #A80036; stroke-width: 1.0;"/><text fill="#000000" font-family="sans-serif" font-size="13" lengthAdjust="spacingAndGlyphs" textLength="26" x="349" y="529.5669">管理</text><polygon fill="#000000" points="357.5,538.6328,360.5,544.6328,363.5,538.6328,357.5,538.6328" style="stroke: #000000; stroke-width: 1.0;"/><!--MD5=[0539f6a6b24608c4fdbdffdc1cab6256]
link AnnotatedBeanDefinitionReader to BeanDefinition--><path d="M524,562.088 C524,586.326 524,617.5583 524,638.599 " fill="none" id="AnnotatedBeanDefinitionReader-BeanDefinition" style="stroke: #A80036; stroke-width: 1.0;"/><text fill="#000000" font-family="sans-serif" font-size="13" lengthAdjust="spacingAndGlyphs" textLength="26" x="525" y="605.0669">读取</text><polygon fill="#000000" points="533.5,614.1328,536.5,620.1328,539.5,614.1328,533.5,614.1328" style="stroke: #000000; stroke-width: 1.0;"/><!--MD5=[625528dc1a017d8218b6ae7ab4ca028e]
link ClassPathBeanDefinitionScanner to BeanDefinition--><path d="M749.029,549.071 C699.195,574.079 620.119,613.7634 570.197,638.8163 " fill="none" id="ClassPathBeanDefinitionScanner-BeanDefinition" style="stroke: #A80036; stroke-width: 1.0;"/><polygon fill="#000000" points="667,599.0664,661,602.0664,667,605.0664,667,599.0664" style="stroke: #000000; stroke-width: 1.0;"/><text fill="#000000" font-family="sans-serif" font-size="13" lengthAdjust="spacingAndGlyphs" textLength="26" x="673" y="605.0669">扫描</text><!--MD5=[c25b2dc65fb10b6786164d1d76c3dbdc]
reverse link GenericApplicationContext to AnnotationConfigApplicationContext--><path d="M524,233.831 C524,255.782 524,281.561 524,299.74 " fill="none" id="GenericApplicationContext&lt;-AnnotationConfigApplicationContext" style="stroke: #A80036; stroke-width: 1.0;"/><polygon fill="none" points="517,233.58,524,213.58,531,233.58,517,233.58" style="stroke: #A80036; stroke-width: 1.0;"/><!--MD5=[1c22574720a4e010ba4218c08cadd295]
reverse link AnnotationConfigApplicationContext to AnnotatedBeanDefinitionReader--><path d="M524,361.453 C524,397.387 524,451.976 524,487.816 " fill="none" id="AnnotationConfigApplicationContext&lt;-AnnotatedBeanDefinitionReader" style="stroke: #A80036; stroke-width: 1.0;"/><polygon fill="#A80036" points="524,348.217,520,354.217,524,360.217,528,354.217,524,348.217" style="stroke: #A80036; stroke-width: 1.0;"/><!--MD5=[7a9c9d08f0cb795c8181eb48e74f0f15]
reverse link AbstractApplicationContext to BeanFactoryPostProcessor--><path d="M409.042,78.347 C382.9,102.537 347.435,135.354 322.027,158.864 " fill="none" id="AbstractApplicationContext&lt;-BeanFactoryPostProcessor" style="stroke: #A80036; stroke-width: 1.0;"/><polygon fill="#A80036" points="418.914,69.212,411.7935,70.3515,410.1067,77.3626,417.2272,76.223,418.914,69.212" style="stroke: #A80036; stroke-width: 1.0;"/><!--MD5=[172130a658d7585d2f7e17ed12a82437]
link BeanDefinitionRegistry to AnnotatedBeanDefinitionReader--><path d="M734.376,367.203 C689.877,400.369 628.092,446.418 582.994,480.031 " fill="none" id="BeanDefinitionRegistry-&gt;AnnotatedBeanDefinitionReader" style="stroke: #A80036; stroke-width: 1.0;"/><polygon fill="#FFFFFF" points="572.487,487.862,579.6881,487.4829,582.1078,480.6899,574.9067,481.069,572.487,487.862" style="stroke: #A80036; stroke-width: 1.0;"/><!--MD5=[7a6b178763b16385f64c24cc03026bc3]
reverse link AbstractApplicationContext to GenericApplicationContext--><path d="M466.884,86.763 C481.177,112.222 499.063,144.081 510.974,165.298 " fill="none" id="AbstractApplicationContext&lt;-GenericApplicationContext" style="stroke: #A80036; stroke-width: 1.0;"/><polygon fill="none" points="460.718,90.079,457.031,69.212,472.926,83.225,460.718,90.079" style="stroke: #A80036; stroke-width: 1.0;"/><!--MD5=[4a79c9c95c9ac35dbeb39d8c1215c241]
reverse link BeanFactoryPostProcessor to BeanDefinitionRegistryPostProcessor--><path d="M240.668,233.503 C218.221,253.071 192.218,275.738 171.998,293.364 " fill="none" id="BeanFactoryPostProcessor&lt;-BeanDefinitionRegistryPostProcessor" style="stroke: #A80036; stroke-width: 1.0;"/><polygon fill="none" points="236.212,228.101,255.888,220.236,245.412,238.654,236.212,228.101" style="stroke: #A80036; stroke-width: 1.0;"/><!--MD5=[d1716c79d65ce5c6444fc8fc45875a60]
link PostProcessorRegistrationDelegate to AbstractApplicationContext--><path d="M267.022,45 C292.29,45 318.479,45 342.715,45 " fill="none" id="PostProcessorRegistrationDelegate-AbstractApplicationContext" style="stroke: #A80036; stroke-width: 1.0;"/><polygon fill="#000000" points="292.5,32.0664,286.5,35.0664,292.5,38.0664,292.5,32.0664" style="stroke: #000000; stroke-width: 1.0;"/><text fill="#000000" font-family="sans-serif" font-size="13" lengthAdjust="spacingAndGlyphs" textLength="26" x="298.5" y="38.0669">委派</text><!--MD5=[12f556f34f96a30eb99eb8e5f85710ae]
link PostProcessorRegistrationDelegate to BeanFactoryPostProcessor--><path d="M177.494,82.327 C202.659,106.076 235.111,136.701 258.69,158.952 " fill="none" id="PostProcessorRegistrationDelegate-BeanFactoryPostProcessor" style="stroke: #A80036; stroke-width: 1.0;"/><text fill="#000000" font-family="sans-serif" font-size="13" lengthAdjust="spacingAndGlyphs" textLength="26" x="225" y="125.0669">回调</text><polygon fill="#000000" points="254,119.0664,260,122.0664,254,125.0664,254,119.0664" style="stroke: #000000; stroke-width: 1.0;"/><!--MD5=[2a7c81cc81279a30c3ed51195fc2d97a]
link PostProcessorRegistrationDelegate to BeanDefinitionRegistryPostProcessor--><path d="M135.792,82.098 C133.984,104.266 131.91,133.252 131,159 C130.042,186.094 130.08,192.904 131,220 C131.839,244.72 133.808,272.719 135.444,293.279 " fill="none" id="PostProcessorRegistrationDelegate-BeanDefinitionRegistryPostProcessor" style="stroke: #A80036; stroke-width: 1.0;"/><text fill="#000000" font-family="sans-serif" font-size="13" lengthAdjust="spacingAndGlyphs" textLength="26" x="132" y="194.0669">回调</text><polygon fill="#000000" points="140.5,203.1328,143.5,209.1328,146.5,203.1328,140.5,203.1328" style="stroke: #000000; stroke-width: 1.0;"/><!--MD5=[fe114535a7df6e115c61b5e9ebcfbf13]
reverse link AnnotationConfigApplicationContext to ClassPathBeanDefinitionScanner--><path d="M566.045,355.874 C620.633,395.959 714.678,465.018 763.512,500.878 " fill="none" id="AnnotationConfigApplicationContext&lt;-ClassPathBeanDefinitionScanner" style="stroke: #A80036; stroke-width: 1.0;"/><polygon fill="#A80036" points="555.352,348.022,557.8208,354.7973,565.0245,355.1244,562.5557,348.349,555.352,348.022" style="stroke: #A80036; stroke-width: 1.0;"/><!--MD5=[a1564ab78500bbdbe7b31de01a826d15]
link BeanDefinitionRegistry to ClassPathBeanDefinitionScanner--><path d="M791.848,367.203 C792.568,403.001 793.589,453.81 794.272,487.787 " fill="none" id="BeanDefinitionRegistry-&gt;ClassPathBeanDefinitionScanner" style="stroke: #A80036; stroke-width: 1.0;"/><polygon fill="#FFFFFF" points="794.533,500.789,798.4115,494.7098,794.2917,488.7914,790.4131,494.8707,794.533,500.789" style="stroke: #A80036; stroke-width: 1.0;"/><!--MD5=[1ec0684bfad9fd0a0881bbcc88fc5314]
@startuml
abstract class AbstractApplicationContext
class GenericApplicationContext
class DefaultListableBeanFactory {
    void registerBeanDefinition()
}

class AnnotationConfigApplicationContext
class AnnotatedBeanDefinitionReader {
    void register()
    void registerBean()
}
class ClassPathBeanDefinitionScanner
interface BeanDefinitionRegistry {
    BeanDefinition getBeanDefinition()
    void registerBeanDefinition()
    void removeBeanDefinition()
}
interface BeanDefinition
interface BeanFactoryPostProcessor {
    void postProcessBeanFactory()
}
interface BeanDefinitionRegistryPostProcessor {
    void postProcessBeanDefinitionRegistry()
}

class PostProcessorRegistrationDelegate {
    {static} void invokeBeanFactoryPostProcessors()
    {static} void registerBeanPostProcessors()
}

GenericApplicationContext ..|>BeanDefinitionRegistry
GenericApplicationContext o- - DefaultListableBeanFactory
DefaultListableBeanFactory- -BeanDefinition : 管理 >
AnnotatedBeanDefinitionReader- -BeanDefinition: 读取 >
ClassPathBeanDefinitionScanner- -BeanDefinition : 扫描 >
GenericApplicationContext <|- - AnnotationConfigApplicationContext
AnnotationConfigApplicationContext *- - AnnotatedBeanDefinitionReader
AbstractApplicationContext *- - BeanFactoryPostProcessor
BeanDefinitionRegistry - -o AnnotatedBeanDefinitionReader
AbstractApplicationContext <|- - GenericApplicationContext
BeanFactoryPostProcessor <|- - BeanDefinitionRegistryPostProcessor
PostProcessorRegistrationDelegate - AbstractApplicationContext: 委派 <
PostProcessorRegistrationDelegate - - BeanFactoryPostProcessor: 回调 >
PostProcessorRegistrationDelegate - - BeanDefinitionRegistryPostProcessor: 回调 >
AnnotationConfigApplicationContext *- - ClassPathBeanDefinitionScanner
BeanDefinitionRegistry - -o ClassPathBeanDefinitionScanner 
@enduml

PlantUML version 1.2019.13(Tue Dec 10 17:18:29 UTC 2019)
(GPL source distribution)
Java Runtime: OpenJDK Runtime Environment
JVM: OpenJDK 64-Bit Server VM
Java Version: 1.8.0_212-8u212-b01-1~deb9u1-b01
Operating System: Linux
Default Encoding: UTF-8
Language: en
Country: null
--></g></svg>